<svg width="268" height="315" viewBox="0 0 268 315" fill="none" xmlns="http://www.w3.org/2000/svg">
<path d="M168.536 81.0709C186.147 84.0782 202.534 91.1063 216.72 101.144C205.616 102.972 196.165 112.96 196.165 124.33C196.165 136.918 204.989 140.908 217.578 140.908C227.692 138.246 233.701 129.429 238.139 120.467C256.663 141.624 268 169.204 268 198.928C266.111 234.059 250.77 266.504 226.648 288.694L209.979 275.598C205.835 279.282 197.41 286.787 196.856 287.34C196.304 287.893 179.127 293.097 170.608 295.629C154.264 298.392 121.442 304.053 120.877 304.608C120.407 305.078 116.904 309.248 114.451 312.183C85.6494 302.207 61.3541 281.036 46.7039 254.292L72.5251 231.392L111.206 196.166L127.093 181.66L156.794 206.526L157.345 207.001C163.027 211.801 167.998 213.433 176.134 213.433C194.826 213.433 209.979 197.971 209.979 178.897C209.979 159.823 194.826 144.361 176.134 144.361C173.521 144.361 170.978 144.663 168.536 145.235V125.021H179.588V125.004C179.817 125.014 180.048 125.021 180.279 125.021C189.053 125.021 196.165 117.908 196.165 109.134C196.165 100.361 189.053 93.2479 180.279 93.2476C180.048 93.2476 179.817 93.2534 179.588 93.2632V93.2476H168.536V81.0709Z" fill="#83B2FF"/>
<mask id="mask0_42_54" style="mask-type:alpha" maskUnits="userSpaceOnUse" x="46" y="81" width="222" height="232">
<path opacity="0.5" d="M168.536 81.0709C186.147 84.0781 202.533 91.1062 216.719 101.144C205.615 102.972 196.165 112.961 196.165 124.33C196.165 136.919 204.989 140.907 217.577 140.907C227.692 138.246 233.701 129.429 238.14 120.466C256.664 141.623 268 169.203 268 198.928C266.111 234.059 250.771 266.505 226.648 288.695L209.979 275.598C205.835 279.282 197.408 286.788 196.856 287.34C196.303 287.893 179.127 293.096 170.608 295.629C154.261 298.392 121.429 304.056 120.876 304.608C120.406 305.079 116.906 309.248 114.453 312.183C85.6512 302.208 61.3553 281.037 46.7046 254.292L72.5257 231.392L111.206 196.165L127.093 181.66L156.794 206.526C162.71 211.693 167.736 213.433 176.134 213.433C194.826 213.433 209.979 197.971 209.979 178.897C209.979 172.762 208.41 167.003 205.661 162.009L208.705 158.557L202.558 157.32C196.356 149.421 186.825 144.361 176.134 144.361C173.522 144.361 170.979 144.663 168.536 145.235V125.021H179.588V125.003C179.817 125.013 180.047 125.021 180.278 125.021C189.052 125.021 196.165 117.908 196.165 109.134C196.165 100.36 189.052 93.2475 180.278 93.2475C180.047 93.2475 179.817 93.2539 179.588 93.2637V93.2475H168.536V81.0709Z" fill="#D9D9D9"/>
</mask>
<g mask="url(#mask0_42_54)">
<path d="M169.226 250.041V209.289L158.175 200.309L127.092 178.206L104.989 197.547L169.226 250.041Z" fill="#3B82F6"/>
</g>
<path d="M84.2681 69.7629L169.918 0V201L127.093 163.701L84.2681 201V69.7629Z" fill="#3B82F6"/>
<mask id="mask1_42_54" style="mask-type:alpha" maskUnits="userSpaceOnUse" x="84" y="0" width="86" height="202">
<path d="M84.2681 69.7629L169.918 0V201L127.093 163.701L84.2681 201V69.7629Z" fill="#D9D9D9"/>
</mask>
<g mask="url(#mask1_42_54)">
<path d="M180.279 77.3608L84.2684 149.887L80.1241 152.65L79.4333 208.598H175.444L180.279 77.3608Z" fill="#2C71E2"/>
</g>
<path d="M71.835 231.392L111.206 196.165L212.504 277.6C189.984 300.253 158.796 314.279 124.33 314.279C55.6646 314.279 0.000135073 258.614 0 189.949C0 140.042 29.4052 97.0034 71.835 77.2125V231.392Z" fill="#3B82F6"/>
</svg>
