<?xml version="1.0" encoding="UTF-8" standalone="no"?><!DOCTYPE svg PUBLIC "-//W3C//DTD SVG 1.1//EN" "http://www.w3.org/Graphics/SVG/1.1/DTD/svg11.dtd"><svg width="100%" height="100%" viewBox="0 0 64 64" version="1.1" xmlns="http://www.w3.org/2000/svg" xmlns:xlink="http://www.w3.org/1999/xlink" xml:space="preserve" style="fill-rule:evenodd;clip-rule:evenodd;stroke-linejoin:round;stroke-miterlimit:1.41421;"><path id="g44941" d="M16.523,35.272l-4.72,7.851l-3.033,-0.04l-1.343,-2.722l3.218,-5.089l-7.432,0l-1.581,-2.755l1.581,-2.635l7.899,0l-3.363,-5.849l1.136,-2.349l3.236,0.003l4.695,8.224l7.486,-0.005c0.369,-1.22 1.011,-2.322 1.855,-3.234l-3.774,-6.552l-9.91,-0.275l-1.293,-2.259l1.463,-2.859l6.646,0.018l-3.649,-6.342l1.256,-2.747l-0.001,-0.002l3.414,0.061l3.587,6.244l3.156,-5.256l2.954,0.138l1.43,2.44l-4.565,7.851l4.014,6.982c0.448,-0.075 0.908,-0.114 1.376,-0.114c0.69,0 1.359,0.084 2,0.242l3.701,-6.422l-4.735,-8.71l1.307,-2.251l3.203,-0.17l3.323,5.759l3.653,-6.342l3.008,-0.29l1.657,2.983l-3.598,6.237l6.129,0.09l1.361,2.627l-1.394,2.461l-9.078,-0.007l-4.013,6.954c0.636,0.805 1.127,1.729 1.432,2.734l7.403,-0.005l5.176,-8.456l2.603,0.007l1.748,2.69l-3.327,5.755l7.316,-0.004l1.755,2.462l-1.755,2.928l-7.2,0l2.986,5.35l-1.592,2.494l-2.831,0.022l-4.528,-7.866l-7.939,0c-0.329,0.863 -0.797,1.657 -1.378,2.355l3.891,6.767l9.161,0.177l1.477,2.65l-1.69,2.523l-6.016,-0.254l3.706,6.443l-1.599,2.744l-3.074,-0.058l-3.938,-6.848l-3.395,5.831l-2.599,0.188l-1.611,-2.809l4.789,-8.169l-3.676,-6.385c-0.586,0.131 -1.194,0.2 -1.819,0.2c-0.407,0 -0.807,-0.029 -1.198,-0.086l-3.981,6.9l4.445,8.014l-1.553,2.61l-3.03,-0.199l-2.798,-5.332l-3.717,6.44l-3.175,-0.007l-1.491,-2.686l3.949,-6.845l-6.751,-0.007l-1.462,-2.158l1.618,-2.801l9.469,0.04l3.698,-6.421c-0.774,-0.801 -1.389,-1.757 -1.794,-2.817l-7.967,0Zm15.738,-6.272c1.829,0 3.314,1.485 3.314,3.314c0,1.828 -1.485,3.313 -3.314,3.313c-1.828,0 -3.313,-1.485 -3.313,-3.313c0,-1.829 1.485,-3.314 3.313,-3.314Z" style="fill:#09ddff;stroke:#09ddff;stroke-width:0.64px;"/></svg>